<svg width="1200" height="1200" viewBox="0 0 1200 1200" fill="none" xmlns="http://www.w3.org/2000/svg">
<path d="M662.587 439.4L600 407L537.412 439.4L467.737 449.975L436.162 512.975L386.025 562.475L397.5 632L386.025 701.525L436.162 751.025L467.737 814.025L537.412 824.6L600 857L662.587 824.6L732.263 814.025L763.838 751.025L813.975 701.525L802.5 632L813.975 562.475L763.838 512.975L732.263 449.975L662.587 439.4ZM707.437 484.137L733.087 535.325L773.813 575.525L764.513 632L773.813 688.475L733.087 728.675L707.437 779.862L650.812 788.45L600 814.775L549.187 788.45L492.563 779.862L466.913 728.675L426.187 688.475L435.525 632L426.15 575.525L466.913 535.325L492.563 484.137L549.187 475.55L600 449.225L650.85 475.55L707.437 484.137Z" fill="black"/>
<path d="M450 849.275V1007L600 969.5L750 1007V849.275L674.325 860.75L600 899.225L525.675 860.75L450 849.275Z" fill="black"/>
<path d="M975 381.25V975C975 1008.15 961.83 1039.95 938.388 1063.39C914.946 1086.83 883.152 1100 850 1100H350C316.848 1100 285.054 1086.83 261.612 1063.39C238.17 1039.95 225 1008.15 225 975V225C225 191.848 238.17 160.054 261.612 136.612C285.054 113.17 316.848 100 350 100H693.75L975 381.25ZM787.5 381.25C762.636 381.25 738.79 371.373 721.209 353.791C703.627 336.21 693.75 312.364 693.75 287.5V162.5H350C333.424 162.5 317.527 169.085 305.806 180.806C294.085 192.527 287.5 208.424 287.5 225V975C287.5 991.576 294.085 1007.47 305.806 1019.19C317.527 1030.92 333.424 1037.5 350 1037.5H850C866.576 1037.5 882.473 1030.92 894.194 1019.19C905.915 1007.47 912.5 991.576 912.5 975V381.25H787.5Z" fill="black"/>
</svg>
